<svg id="Layer_1" data-name="Layer 1" xmlns="http://www.w3.org/2000/svg"
    viewBox="0 0 619.39 189.67" fill="#1b75bc">

    <path class="cls-1"
        d="M331.14,615.17c-20.73-5-25.76-9.84-25.76-19.47,0-8.37,5.24-17.38,23.45-17.38,17.8,0,24.71,10.89,26.6,19.68H365.9c-1.68-14.86-13-29.31-36.65-29.31s-34.55,13.4-34.55,27.85c0,13.82,6.7,22,33.72,28.48,23.45,5.65,28.47,11.51,28.47,23.45,0,11.73-7.53,20.31-26.17,20.31-16.54,0-26.18-8.17-29.74-21.78H290.3c2.94,18.85,16.34,31.41,40.21,31.41,22,0,37.48-11.72,37.48-30.78C368,631.93,360.66,622.29,331.14,615.17Z"
        transform="translate(-290.3 -505.17)" />
    <path class="cls-1"
        d="M407.56,538.53H397.09V571.2H377.62V581h19.47v72.87c0,16.76,7.54,23.46,20.94,23.46,4.4,0,9.42-.42,13-1.89v-9.21a39.49,39.49,0,0,1-10.89,1.26c-10.05,0-12.56-6.71-12.56-18.43V581h24.92V571.2H407.56Z"
        transform="translate(-290.3 -505.17)" />
    <path class="cls-1"
        d="M462.42,594.65c0-13.4-.21-20.1-.42-23.45H451.74c0,3.35.21,10.89.21,28.48V675.9h10.47V621.46c0-24.92,14.66-40,36.44-41.46V568.69C481.89,569.52,468.49,579,462.42,594.65Z"
        transform="translate(-290.3 -505.17)" />
    <path class="cls-1"
        d="M556.64,568.69c-30.36,0-46.9,24.92-46.9,54.86,0,31.62,17.59,54.86,45.86,54.86,31.2,0,47.32-26,47.32-55.07C602.92,590.47,584.49,568.69,556.64,568.69Zm-.21,99.88c-22.19,0-35.59-20.1-35.59-45,0-25.13,11.3-45,35.18-45,23.24,0,35.8,20.31,35.8,45C591.82,649.94,579.05,668.57,556.43,668.57Z"
        transform="translate(-290.3 -505.17)" />
    <rect class="cls-1" x="338.57" y="16.41" width="10.47" height="154.33" />
    <rect class="cls-1" x="383.38" y="16.41" width="10.47" height="154.33" />
    <path class="cls-1"
        d="M800.5,570.1c-10.07,0-12.71,8.32-12.71,19.84v13.2h25V589.82C812.77,579.88,811.17,570.1,800.5,570.1Z"
        transform="translate(-290.3 -505.17)" />
    <path class="cls-1"
        d="M706.56,505.17V694.83H909.7V505.17Zm58.83,67h-15v71.57c0,5.49,1,10.73,7.71,10.73a33,33,0,0,0,6.66-.61v11.51c-3.2,1.31-7.94,1.63-11.55,1.63-10.32,0-17.59-4.27-17.59-20.56V572.17H723.37V558.94h12.22V532.76h14.77v26.18h15Zm61.8,43.16H787.7v17.42c0,10.61,2.09,21.66,12.62,21.66,10.09,0,11.95-8.23,11.95-18.44v-.87h14.6v.76c0,12.36-2.85,31.38-26.49,31.38-22.28,0-27.28-14.6-27.28-36.27V591.28c0-16.17,5.64-34,27.51-34,20.56,0,26.58,15.24,26.58,34Zm65.73-23.53H878.11v-3.67c0-9.68-1.6-18-11.08-18-8.28,0-11.51,6.2-11.51,18.82v45.74c0,9.66,1.8,19.75,11.28,19.75,8.43,0,11.31-5.67,11.31-19.16v-3.38h14.81v1.49c0,18.4-4.69,33.88-26.53,33.88-20.79,0-25.88-14.43-25.88-36V589.85c0-18.06,6.57-32.57,26.81-32.57,21.82,0,25.6,16,25.6,30.22Z"
        transform="translate(-290.3 -505.17)" />
</svg>